<svg width="56" height="54" viewBox="0 0 56 54" fill="none" xmlns="http://www.w3.org/2000/svg">
<path d="M15.57 53.7196C13.1463 53.8083 10.8294 53.3493 8.61268 52.3696C8.45776 52.3011 8.28894 52.2641 8.06411 52.1817C7.81518 52.0163 7.64189 51.8565 7.44015 51.751C5.971 50.9828 4.70681 49.9501 3.58322 48.7445C3.16782 48.2987 2.81487 47.7948 2.43344 47.3175C0.819492 44.8101 -0.0867657 42.1053 0.105799 39.0844C0.336494 35.4654 1.91636 32.5304 4.60867 30.1589C6.52115 28.4743 8.7836 27.5271 11.4268 27.0459C8.79992 26.6036 6.60116 25.5956 4.68125 23.9834C-0.267966 19.8274 -1.46273 12.5284 1.91402 7.02864C4.0507 3.54857 7.03879 1.13357 11.0695 0.344501C16.0006 -0.620862 20.4314 0.544453 24.0121 4.20462C26.1879 6.42861 27.4651 9.13208 27.7904 12.2537C27.7972 12.3197 27.809 12.3852 27.9055 12.4577C28.011 11.8774 28.0793 11.2874 28.2278 10.7182C29.4486 6.03845 32.2113 2.62422 36.7926 0.980896C42.569 -1.09111 47.8096 0.132194 52.0201 4.53032C57.6363 10.3969 56.7149 18.5406 51.7462 23.4435C49.7828 25.381 47.7641 26.389 44.4522 27.0502C49.2831 28.0019 52.8772 30.521 54.9774 35.0972C55.9244 37.5206 56.258 39.9242 55.7903 42.4213C55.7166 42.8151 55.719 43.2232 55.6861 43.6247C55.6021 43.7484 55.4854 43.8609 55.4387 43.9973C53.7487 48.9308 50.2201 51.8363 45.2931 53.1915C43.6643 53.6396 42.0021 53.8442 40.2138 53.7447C33.9154 53.0422 29.6872 49.9045 27.8241 43.8992C27.5644 44.5485 27.3287 45.2872 26.9841 45.971C26.006 47.9125 24.6091 49.5186 22.9035 50.8593C20.7484 52.5534 18.2806 53.4483 15.57 53.7196ZM28.0076 25.7793C28.0191 25.829 28.0305 25.8787 28.0295 26.0206C28.0656 26.2104 28.0939 26.402 28.1389 26.5896C28.6086 28.5475 30.2764 29.9446 32.4335 30.1906C34.251 30.3979 36.2166 29.2909 37.0568 27.5867C37.9009 25.8745 37.6264 23.684 36.395 22.3068C35.0625 20.8165 33.0448 20.2642 31.2219 20.8909C29.3555 21.5325 28.1112 23.2133 27.9425 25.2865C27.8856 25.178 27.789 25.0735 27.7774 24.9603C27.4921 22.1649 25.0144 20.2778 22.1886 20.7117C19.6118 21.1073 17.8 23.7355 18.3129 26.3337C18.851 29.0593 21.471 30.7422 24.1577 30.0395C26.1747 29.5118 27.3197 28.1396 27.7473 26.1249C27.7814 25.9641 27.9243 25.8263 28.0065 25.6922C28.0065 25.6922 28.0201 25.7033 28.0076 25.7793ZM34.0944 35.4532C34.3878 35.1723 34.706 34.9128 34.97 34.6066C35.6942 33.7661 36.21 32.8206 36.1871 31.675C36.1745 31.0431 35.7671 30.6383 35.2349 30.6319C34.7414 30.6261 34.3694 31.0201 34.3281 31.6366C34.255 32.7294 33.7631 33.6137 32.9237 34.2704C30.3866 36.2551 27.5785 36.486 24.6602 35.32C22.8884 34.6121 21.5678 33.4329 21.3608 31.3435C21.335 31.0826 20.9053 30.6751 20.6566 30.6705C20.3528 30.6649 19.8889 30.9484 19.7727 31.2242C19.6156 31.5972 19.635 32.1031 19.7345 32.5143C20.0111 33.6574 20.6621 34.5829 21.579 35.3249C25.1383 38.2047 30.3953 38.2834 34.0944 35.4532Z" fill="#6EE057"/>
<path d="M28.0166 25.6777C27.9242 25.8261 27.7814 25.9639 27.7473 26.1247C27.3197 28.1394 26.1747 29.5116 24.1576 30.0393C21.4709 30.742 18.851 29.0591 18.3129 26.3335C17.8 23.7353 19.6118 21.1071 22.1885 20.7115C25.0144 20.2776 27.4921 22.1647 27.7774 24.9601C27.7889 25.0733 27.8856 25.1778 27.9753 25.3048C28.0109 25.4414 28.0137 25.5596 28.0166 25.6777ZM20.5484 25.8325C20.5943 26.0199 20.6239 26.2132 20.6887 26.3939C21.0595 27.4277 22.0077 28.0956 23.1372 28.1292C24.292 28.1637 25.3271 27.5287 25.7437 26.5303C26.1904 25.46 25.9804 24.3009 25.1993 23.5258C24.3825 22.7152 23.2094 22.4946 22.1409 22.9507C21.1056 23.3926 20.5241 24.4009 20.5484 25.8325Z" fill="#F9FBFB"/>
<path d="M28.0111 25.6849C28.0133 25.5596 28.0105 25.4415 28.0068 25.2788C28.1108 23.2132 29.3551 21.5324 31.2215 20.8908C33.0444 20.2641 35.0621 20.8164 36.3946 22.3067C37.626 23.6839 37.9005 25.8744 37.0564 27.5866C36.2162 29.2908 34.2506 30.3978 32.4331 30.1905C30.276 29.9445 28.6082 28.5473 28.1385 26.5895C28.0935 26.4019 28.0652 26.2103 28.0558 25.955C28.0615 25.8273 28.0406 25.7652 28.0197 25.7031C28.0197 25.7031 28.0061 25.6921 28.0111 25.6849ZM33.911 23.0971C33.7535 23.025 33.5999 22.9424 33.4379 22.8824C32.0021 22.3513 30.3188 23.1798 29.8957 24.6226C29.4376 26.1845 30.3633 27.7328 31.9475 28.0543C33.2635 28.3214 34.4739 27.7444 34.9896 26.6039C35.5716 25.3169 35.1958 24.0247 33.911 23.0971Z" fill="#F9FBFB"/>
<path d="M34.0627 35.4799C30.3952 38.2836 25.1382 38.2049 21.579 35.3251C20.662 34.5831 20.011 33.6576 19.7345 32.5145C19.635 32.1033 19.6156 31.5974 19.7727 31.2245C19.8888 30.9487 20.3528 30.6651 20.6566 30.6707C20.9053 30.6753 21.3349 31.0828 21.3608 31.3437C21.5677 33.4331 22.8883 34.6123 24.6602 35.3202C27.5785 36.4862 30.3866 36.2553 32.9237 34.2706C33.7631 33.6139 34.255 32.7296 34.3281 31.6368C34.3693 31.0203 34.7413 30.6263 35.2348 30.6321C35.7671 30.6385 36.1745 31.0433 36.1871 31.6752C36.21 32.8208 35.6942 33.7663 34.9699 34.6068C34.706 34.9131 34.3878 35.1725 34.0627 35.4799Z" fill="#030303"/>
<path d="M28.0137 25.7413C28.0408 25.7654 28.0617 25.8275 28.0622 25.909C28.0303 25.8787 28.0188 25.829 28.0137 25.7413Z" fill="#F9FBFB"/>
<path d="M20.543 25.7809C20.5234 24.4012 21.1049 23.3928 22.1403 22.9509C23.2088 22.4948 24.3819 22.7154 25.1987 23.5261C25.9797 24.3012 26.1897 25.4602 25.7431 26.5306C25.3265 27.5289 24.2914 28.1639 23.1366 28.1295C22.007 28.0958 21.0589 27.4279 20.6881 26.3941C20.6233 26.2134 20.5937 26.0202 20.543 25.7809Z" fill="#030303"/>
<path d="M33.9473 23.1202C35.196 24.0246 35.5717 25.3169 34.9897 26.6039C34.474 27.7443 33.2637 28.3214 31.9476 28.0543C30.3634 27.7327 29.4377 26.1844 29.8958 24.6225C30.319 23.1798 32.0023 22.3512 33.4381 22.8824C33.6001 22.9423 33.7537 23.025 33.9473 23.1202Z" fill="#030303"/>
</svg>
