<svg width="102" height="120" viewBox="0 0 102 120" fill="none" xmlns="http://www.w3.org/2000/svg">
<path d="M61.7079 75.5902C62.2624 80.4955 62.2918 85.3698 60.4743 90.0562C60.0472 91.1574 59.2266 92.1036 58.612 93.1361C58.438 93.4285 58.2249 93.7822 58.2459 94.0932C58.5276 98.2639 58.8476 102.432 59.0807 106.665C55.3294 106.727 51.6554 106.725 47.9655 106.695C47.8922 106.64 47.8349 106.613 47.7776 106.586C47.7486 105.989 47.7196 105.392 47.7154 104.709C47.754 104.592 47.7453 104.565 47.714 104.543C47.714 101.972 47.714 99.3997 47.714 96.7713C45.7257 96.7713 43.9223 96.7713 42.0348 96.7713C41.9781 100.007 41.9217 103.229 41.7805 106.536C41.3858 106.657 41.0754 106.725 40.7659 106.721C37.3499 106.682 33.934 106.631 30.518 106.583C30.8068 102.44 31.0995 98.2974 31.3755 94.1537C31.3932 93.8876 31.3768 93.5217 31.217 93.3562C29.4383 91.5155 28.6874 89.2147 28.1984 86.789C27.458 83.1168 27.5221 79.4228 27.9832 75.6505C28.9198 75.4629 29.787 75.4013 30.6279 75.2184C36.4066 73.9614 41.1601 71.1369 44.4481 66.0973C44.5551 65.9332 44.7032 65.7959 44.8239 65.6558C44.902 65.7003 44.9318 65.708 44.9466 65.7273C45.026 65.8305 45.108 65.9327 45.1778 66.0424C47.8633 70.2658 51.7242 72.9541 56.4213 74.4517C58.1307 74.9968 59.9427 75.2201 61.7079 75.5902Z" fill="#6EE057"/>
<path d="M82.74 46.7378C84.1124 44.937 85.3908 43.0899 86.2872 40.9827C87.1521 38.9497 87.4548 36.913 86.9506 34.7441C86.774 33.9843 86.7228 33.1807 86.7259 32.3975C86.7295 31.49 87.3205 30.8321 88.0946 30.702C88.8462 30.5757 89.4278 30.9167 89.8195 31.7801C90.0466 32.2808 90.2025 32.8138 90.4697 33.5507C90.6695 32.9536 90.8393 32.5398 90.9455 32.1103C91.1916 31.1144 91.3954 30.108 91.641 29.112C91.7283 28.7582 91.8459 28.3992 92.0216 28.0824C92.3975 27.4049 93.1391 27.1246 93.8399 27.3344C94.6236 27.5691 94.9256 28.1448 94.8774 28.9016C94.8106 29.9511 94.6831 30.9966 94.5918 32.0447C94.57 32.2945 94.5886 32.5478 94.7242 32.8421C95.1038 32.1412 95.4663 31.4302 95.868 30.7421C96.2479 30.0913 96.7804 29.6641 97.5962 29.7062C98.5021 29.753 98.9991 30.3512 98.7936 31.2413C98.5629 32.2406 98.2812 33.2281 98.0287 34.2224C97.9782 34.4212 97.959 34.6279 97.8921 35.0313C98.2577 34.5094 98.4862 34.1327 98.7644 33.7974C99.2249 33.2424 99.8044 33.006 100.522 33.2672C101.232 33.5252 101.534 34.0992 101.392 34.7683C101.092 36.1751 100.872 37.6443 100.286 38.9374C97.0635 46.0567 92.5028 52.163 86.1433 56.9183C85.9873 56.7784 85.9284 56.662 85.9001 56.5386C85.5101 54.8351 85.2374 53.0944 84.7052 51.4369C84.1881 49.8263 83.4058 48.3007 82.74 46.7378Z" fill="#6EE057"/>
<path d="M15.8865 74.022C15.064 76.0104 14.1537 77.968 13.4401 79.9948C12.4565 82.7886 12.4333 85.612 13.5415 88.418C13.8065 89.089 13.9238 89.8412 13.98 90.566C14.0494 91.4616 13.5978 92.0248 12.8341 92.2182C12.1276 92.3971 11.5549 92.0881 11.1196 91.2838C11.0001 91.0629 10.8995 90.8317 10.6295 90.6255C10.6295 91.4255 10.6395 92.2257 10.6257 93.0255C10.6179 93.4714 10.6174 93.9259 10.5312 94.3601C10.3669 95.1885 9.80492 95.6781 9.09325 95.694C8.28702 95.7121 7.75867 95.2894 7.56975 94.3852C7.40849 93.6134 7.32062 92.8264 7.19392 92.0471C7.15384 91.8005 7.09324 91.5573 6.89039 91.3231C6.77357 92.1468 6.65473 92.9703 6.54047 93.7944C6.40879 94.7442 6.01244 95.0845 5.06866 95.0508C4.02551 95.0136 3.44161 94.5378 3.41817 93.6379C3.39046 92.5733 3.41167 91.5075 3.29131 90.4205C3.18431 90.6479 3.08288 90.8781 2.96923 91.1021C2.6835 91.6652 2.2411 92.024 1.59102 91.9768C0.929462 91.9287 0.379655 91.5692 0.254565 90.9248C0.0815683 90.0336 -0.0314854 89.1067 0.00781373 88.2028C0.126372 85.4764 0.83546 82.8629 1.61735 80.2588C3.14065 75.1854 5.4474 70.5205 8.7363 66.3282C10.2865 68.6871 12.0341 70.7885 14.18 72.5474C14.7613 73.0238 15.3184 73.5297 15.8865 74.022Z" fill="#6EE057"/>
<path d="M30.4887 106.648C33.9341 106.631 37.35 106.682 40.766 106.721C41.0755 106.725 41.3859 106.657 41.7581 106.597C41.7557 110.702 41.6901 114.831 41.6276 118.96C41.6194 119.495 41.3515 119.806 40.8294 119.858C40.098 119.932 39.3634 119.972 38.5102 119.969C35.4368 119.897 32.4834 119.881 29.53 119.872C29.4621 119.872 29.394 119.941 29.326 119.978C27.438 119.883 25.5501 119.786 23.6621 119.693C23.0111 119.661 22.769 119.377 22.8404 118.687C23.0525 116.639 23.9885 115.002 25.7043 113.931C26.7824 113.258 28.0124 112.803 29.216 112.365C29.8415 112.137 30.0513 111.815 30.0894 111.193C30.1809 109.698 30.3321 108.207 30.4887 106.648Z" fill="#16AF1B"/>
<path d="M47.9814 106.723C51.6553 106.725 55.3293 106.727 59.0737 106.73C59.2722 108.143 59.4384 109.552 59.5129 110.966C59.5534 111.733 59.7383 112.273 60.5889 112.396C60.8426 112.433 61.0818 112.57 61.3886 112.742C61.5914 112.854 61.7334 112.884 61.8754 112.915C61.9634 112.938 62.0515 112.961 62.1957 113.069C62.5554 113.276 62.859 113.398 63.1626 113.521C63.1626 113.521 63.1518 113.526 63.172 113.56C63.2454 113.614 63.2987 113.635 63.3519 113.656C63.3519 113.656 63.3237 113.659 63.343 113.697C63.4606 113.763 63.5589 113.79 63.6572 113.817C63.6572 113.817 63.6369 113.824 63.6557 113.861C63.7684 113.931 63.8621 113.962 63.9559 113.994C63.9559 113.994 63.9442 113.998 63.9627 114.032C64.0321 114.091 64.0829 114.117 64.1338 114.144C64.1338 114.144 64.1099 114.146 64.1261 114.179C64.1964 114.237 64.2505 114.262 64.3045 114.287C64.3045 114.287 64.2765 114.291 64.2914 114.327C64.3952 114.402 64.4841 114.44 64.573 114.479C64.7196 114.604 64.8662 114.729 65.0351 114.951C65.1275 115.109 65.1977 115.17 65.2678 115.231C65.2678 115.231 65.2403 115.244 65.2463 115.276C65.3048 115.339 65.3573 115.37 65.4097 115.401C65.4097 115.401 65.3843 115.408 65.3948 115.44C65.4535 115.505 65.5017 115.539 65.55 115.574C65.55 115.574 65.5329 115.573 65.5342 115.619C65.6019 115.734 65.6684 115.803 65.7348 115.873C65.7348 115.873 65.712 115.875 65.7067 115.926C65.957 116.767 66.3177 117.542 66.441 118.353C66.5894 119.329 66.3946 119.471 65.4032 119.532C63.5793 119.645 61.7543 119.842 59.9305 119.833C56.032 119.814 52.134 119.686 48.2357 119.602C48.2357 119.602 48.2351 119.591 48.2458 119.521C48.1615 117.547 48.0208 115.642 47.9834 113.736C47.9375 111.399 47.9781 109.061 47.9814 106.723Z" fill="#16AF1B"/>
<path d="M61.7213 75.5203C59.9431 75.22 58.1312 74.9967 56.4218 74.4517C51.7247 72.9541 47.8638 70.2658 45.1783 66.0424C45.1085 65.9327 45.0265 65.8305 44.9471 65.7272C44.9323 65.708 44.9025 65.7003 44.8244 65.6557C44.7037 65.7959 44.5556 65.9332 44.4485 66.0972C41.1605 71.1368 36.4071 73.9614 30.6283 75.2183C29.7875 75.4012 28.9203 75.4629 28.0015 75.5833C27.9822 74.7921 28.0265 73.9983 28.0608 73.1349C31.7375 72.6964 35.0942 71.4792 38.0254 69.175C40.3452 67.3515 42.2451 65.1669 43.5756 62.5263C44.0442 61.5962 44.3649 60.5915 44.7181 59.7084C47.2521 67.8764 53.003 72.144 61.5112 73.0754C61.6338 73.8641 61.684 74.6573 61.7213 75.5203Z" fill="#2AA221"/>
<path d="M15.9277 73.9871C15.3187 73.5297 14.7616 73.0239 14.1804 72.5474C12.0344 70.7885 10.2868 68.6871 8.78271 66.3028C9.2074 65.6498 9.6603 65.0432 10.1482 64.3972C10.7019 65.0072 11.182 65.6926 11.747 66.2988C13.2752 67.9386 14.9947 69.3432 16.9929 70.3881C17.2673 70.5315 17.503 70.749 17.7835 70.9819C17.1964 72.0052 16.5825 72.9787 15.9277 73.9871Z" fill="#2AA221"/>
<path d="M82.693 46.7675C83.4061 48.3008 84.1883 49.8263 84.7055 51.4369C85.2377 53.0944 85.5103 54.8352 85.9004 56.5386C85.9286 56.662 85.9876 56.7785 86.0927 56.926C85.0085 57.737 83.864 58.5202 82.6665 59.3192C82.6582 58.789 82.655 58.2339 82.7553 57.6983C83.3915 54.3019 82.9377 51.0327 81.6584 47.7913C81.9859 47.4194 82.3158 47.1082 82.693 46.7675Z" fill="#2AA221"/>
<path d="M48.2661 119.65C52.1342 119.686 56.0322 119.814 59.9308 119.833C61.7545 119.842 63.5796 119.645 65.4034 119.532C66.3949 119.471 66.5897 119.329 66.4413 118.353C66.318 117.542 65.9573 116.767 65.7124 115.916C66.4548 116.781 66.6769 117.871 66.7574 119.014C66.7991 119.606 66.3707 119.648 65.9894 119.677C64.3908 119.795 62.7907 119.95 61.1897 119.968C57.429 120.012 53.6674 119.996 49.9063 119.974C49.3691 119.97 48.8329 119.794 48.2661 119.65Z" fill="#16AF1B"/>
<path d="M47.9653 106.695C47.978 109.061 47.9374 111.399 47.9832 113.736C48.0207 115.642 48.1614 117.546 48.2398 119.521C48.1335 119.335 47.9704 119.081 47.9648 118.825C47.8769 114.792 47.8092 110.76 47.7571 106.657C47.8347 106.613 47.892 106.64 47.9653 106.695Z" fill="#16AF1B"/>
<path d="M29.3984 119.993C29.3941 119.941 29.4622 119.872 29.5301 119.872C32.4835 119.881 35.4368 119.897 38.4378 119.956C35.4804 120.004 32.4756 120.006 29.3984 119.993Z" fill="#16AF1B"/>
<path d="M63.1313 113.477C62.8588 113.398 62.5553 113.276 62.2258 113.105C62.5001 113.182 62.8001 113.307 63.1313 113.477Z" fill="#16AF1B"/>
<path d="M61.8351 112.884C61.7336 112.884 61.5916 112.854 61.4294 112.781C61.5378 112.777 61.6662 112.815 61.8351 112.884Z" fill="#16AF1B"/>
<path d="M63.632 113.774C63.5591 113.789 63.4609 113.762 63.3469 113.683C63.423 113.665 63.5148 113.698 63.632 113.774Z" fill="#16AF1B"/>
<path d="M63.9311 113.952C63.8622 113.962 63.7685 113.931 63.6562 113.851C63.7273 113.838 63.8167 113.874 63.9311 113.952Z" fill="#16AF1B"/>
<path d="M64.5527 114.435C64.4843 114.44 64.3954 114.402 64.2954 114.313C64.3669 114.306 64.4496 114.349 64.5527 114.435Z" fill="#16AF1B"/>
<path d="M65.261 115.184C65.1978 115.17 65.1277 115.109 65.052 114.997C65.1157 115.009 65.1848 115.073 65.261 115.184Z" fill="#16AF1B"/>
<path d="M65.7312 115.823C65.6683 115.803 65.6019 115.734 65.5371 115.61C65.6017 115.629 65.6647 115.701 65.7312 115.823Z" fill="#16AF1B"/>
<path d="M63.337 113.614C63.2995 113.636 63.2459 113.615 63.1721 113.554C63.2083 113.533 63.2646 113.552 63.337 113.614Z" fill="#16AF1B"/>
<path d="M64.1195 114.102C64.0838 114.118 64.0325 114.092 63.9624 114.025C63.997 114.01 64.0505 114.035 64.1195 114.102Z" fill="#16AF1B"/>
<path d="M64.2919 114.244C64.2513 114.263 64.1969 114.237 64.1279 114.167C64.1683 114.148 64.2232 114.173 64.2919 114.244Z" fill="#16AF1B"/>
<path d="M65.401 115.356C65.3582 115.371 65.3054 115.34 65.2463 115.261C65.2903 115.245 65.3406 115.278 65.401 115.356Z" fill="#16AF1B"/>
<path d="M65.5416 115.529C65.5026 115.54 65.454 115.506 65.3958 115.426C65.4348 115.415 65.4834 115.449 65.5416 115.529Z" fill="#16AF1B"/>
<path d="M47.7067 104.57C47.7463 104.565 47.7552 104.592 47.7305 104.637C47.7199 104.649 47.699 104.597 47.7067 104.57Z" fill="#16AF1B"/>
<path d="M28.0507 73.0655C24.7543 73.1861 21.603 72.5619 18.5879 71.2293C18.3772 71.1362 18.1476 71.0858 17.8418 70.9738C17.5032 70.7489 17.2675 70.5314 16.9931 70.388C14.9949 69.3431 13.2754 67.9385 11.7472 66.2987C11.1822 65.6925 10.7021 65.0071 10.1833 64.3578C7.98815 60.9474 6.75552 57.2687 7.01744 53.1598C7.33121 48.2375 9.48003 44.2456 13.1419 41.02C15.7432 38.7286 18.8204 37.4404 22.4154 36.7859C18.8426 36.1844 15.852 34.8133 13.2407 32.6205C6.50907 26.9678 4.88403 17.0403 9.47686 9.55985C12.383 4.82651 16.4472 1.54181 21.9295 0.468565C28.6365 -0.844451 34.6629 0.740525 39.5332 5.71882C42.4925 8.74373 44.2298 12.4208 44.6721 16.6666C44.6815 16.7564 44.6974 16.8455 44.8288 16.9441C44.9722 16.1548 45.0651 15.3523 45.2671 14.5782C46.9275 8.21307 50.6851 3.56928 56.9163 1.33414C64.773 -1.48405 71.901 0.179801 77.6277 6.16182C85.2666 14.1412 84.0134 25.2176 77.2553 31.8862C74.5847 34.5214 71.8391 35.8924 67.3344 36.7918C73.905 38.0862 78.7935 41.5125 81.65 47.7368C82.9381 51.0328 83.3919 54.302 82.7558 57.6984C82.6555 58.2341 82.6587 58.7891 82.6141 59.3352C82.4997 59.5034 82.341 59.6564 82.2775 59.842C79.9789 66.5522 75.1795 70.504 68.4782 72.3473C66.2627 72.9567 64.002 73.235 61.5696 73.0997C53.0029 72.1442 47.252 67.8766 44.7181 59.7086C44.3648 60.5917 44.0442 61.5964 43.5755 62.5265C42.2451 65.1671 40.3451 67.3517 38.0254 69.1752C35.0942 71.4794 31.7375 72.6966 28.0507 73.0655ZM44.9676 35.0632C44.9832 35.1307 44.9987 35.1983 44.9974 35.3914C45.0465 35.6495 45.085 35.9101 45.1462 36.1653C45.785 38.8282 48.0535 40.7285 50.9874 41.0631C53.4595 41.3451 56.133 39.8394 57.2757 37.5214C58.4238 35.1926 58.0504 32.2133 56.3756 30.3401C54.5631 28.3131 51.8189 27.5619 49.3395 28.4143C46.8009 29.287 45.1085 31.573 44.8791 34.3929C44.8016 34.2453 44.6702 34.1031 44.6545 33.9492C44.2665 30.1471 40.8964 27.5803 37.0529 28.1705C33.5482 28.7087 31.0839 32.2833 31.7816 35.8172C32.5134 39.5244 36.0769 41.8133 39.7311 40.8575C42.4746 40.1399 44.032 38.2735 44.6135 35.5332C44.66 35.3144 44.8542 35.1271 44.9661 34.9447C44.9661 34.9447 44.9846 34.9597 44.9676 35.0632ZM53.2464 48.2208C53.6455 47.8389 54.0783 47.4859 54.4373 47.0694C55.4224 45.9262 56.1239 44.6402 56.0928 43.0821C56.0757 42.2226 55.5216 41.672 54.7976 41.6634C54.1264 41.6554 53.6204 42.1913 53.5643 43.0298C53.4649 44.5161 52.7958 45.7189 51.6541 46.6121C48.2034 49.3116 44.384 49.6257 40.4147 48.0398C38.0048 47.0769 36.2086 45.473 35.9271 42.6312C35.8919 42.2763 35.3075 41.7221 34.9692 41.7158C34.5561 41.7082 33.925 42.0939 33.767 42.469C33.5534 42.9763 33.5797 43.6644 33.7151 44.2237C34.0912 45.7784 34.9767 47.0372 36.2239 48.0463C41.0649 51.9633 48.2151 52.0704 53.2464 48.2208Z" fill="#6EE057"/>
<path d="M44.9795 34.9251C44.854 35.1271 44.6597 35.3144 44.6133 35.5331C44.0317 38.2734 42.4743 40.1398 39.7309 40.8574C36.0766 41.8133 32.5131 39.5243 31.7813 35.8171C31.0837 32.2832 33.5479 28.7086 37.0527 28.1704C40.8962 27.5803 44.2662 30.1471 44.6542 33.9491C44.6699 34.1031 44.8013 34.2452 44.9234 34.418C44.9719 34.6038 44.9757 34.7645 44.9795 34.9251ZM34.8219 35.1357C34.8843 35.3906 34.9246 35.6535 35.0127 35.8993C35.517 37.3054 36.8066 38.2138 38.343 38.2596C39.9136 38.3064 41.3215 37.4428 41.8882 36.0849C42.4957 34.6291 42.21 33.0526 41.1477 31.9983C40.0367 30.8958 38.4412 30.5957 36.9878 31.2161C35.5797 31.8171 34.7887 33.1886 34.8219 35.1357Z" fill="#F9FBFB"/>
<path d="M44.9722 34.9349C44.9752 34.7645 44.9713 34.6038 44.9663 34.3825C45.1077 31.573 46.8001 29.2869 49.3387 28.4142C51.8181 27.5619 54.5624 28.313 56.3748 30.3401C58.0496 32.2132 58.4231 35.1925 57.2749 37.5214C56.1322 39.8393 53.4587 41.345 50.9866 41.0631C48.0527 40.7284 45.7842 38.8281 45.1454 36.1652C45.0842 35.9101 45.0457 35.6494 45.0329 35.3022C45.0407 35.1286 45.0123 35.0441 44.9838 34.9596C44.9838 34.9596 44.9654 34.9446 44.9722 34.9349ZM52.9967 31.4151C52.7825 31.317 52.5736 31.2046 52.3533 31.1231C50.4004 30.4007 48.1109 31.5276 47.5354 33.4899C46.9123 35.6143 48.1714 37.7202 50.3261 38.1575C52.1161 38.5208 53.7623 37.736 54.4638 36.1848C55.2553 34.4344 54.7443 32.6767 52.9967 31.4151Z" fill="#F9FBFB"/>
<path d="M53.2025 48.2571C48.2143 52.0705 41.064 51.9635 36.223 48.0465C34.9758 47.0374 34.0904 45.7785 33.7142 44.2238C33.5789 43.6646 33.5525 42.9764 33.7662 42.4692C33.9242 42.094 34.5552 41.7084 34.9683 41.716C35.3067 41.7223 35.891 42.2765 35.9262 42.6314C36.2077 45.4732 38.0039 47.0771 40.4138 48.04C44.3831 49.6258 48.2025 49.3118 51.6532 46.6123C52.795 45.7191 53.464 44.5163 53.5635 43.03C53.6196 42.1915 54.1255 41.6555 54.7967 41.6635C55.5207 41.6722 56.0748 42.2228 56.0919 43.0823C56.123 44.6404 55.4216 45.9264 54.4364 47.0696C54.0775 47.4861 53.6447 47.8391 53.2025 48.2571Z" fill="#030303"/>
<path d="M44.9753 35.0116C45.0123 35.0443 45.0407 35.1288 45.0413 35.2396C44.9979 35.1984 44.9824 35.1309 44.9753 35.0116Z" fill="#F9FBFB"/>
<path d="M34.8151 35.0653C34.7885 33.1887 35.5795 31.8172 36.9877 31.2162C38.441 30.5959 40.0365 30.8959 41.1475 31.9985C42.2098 33.0527 42.4955 34.6292 41.888 36.085C41.3213 37.4429 39.9134 38.3065 38.3428 38.2597C36.8064 38.2139 35.5168 37.3055 35.0125 35.8994C34.9244 35.6537 34.8841 35.3908 34.8151 35.0653Z" fill="#030303"/>
<path d="M53.046 31.4465C54.7443 32.6767 55.2554 34.4343 54.4639 36.1848C53.7624 37.736 52.1162 38.5208 50.3262 38.1575C48.1715 37.7202 46.9124 35.6143 47.5355 33.4899C48.111 31.5276 50.4005 30.4007 52.3534 31.1231C52.5737 31.2046 52.7826 31.317 53.046 31.4465Z" fill="#030303"/>
</svg>
