<svg width="88" height="85" viewBox="0 0 88 85" fill="none" xmlns="http://www.w3.org/2000/svg">
<path d="M24.4671 84.4165C20.6585 84.5558 17.0177 83.8346 13.5342 82.295C13.2908 82.1874 13.0255 82.1292 12.6722 81.9999C12.281 81.74 12.0087 81.4887 11.6917 81.323C9.383 80.1158 7.39642 78.493 5.63077 76.5984C4.978 75.898 4.42337 75.1062 3.82398 74.356C1.28777 70.4158 -0.136346 66.1655 0.166256 61.4184C0.528776 55.7314 3.01142 51.1193 7.2422 47.3925C10.2475 44.7453 13.8028 43.2569 17.9563 42.5007C13.8284 41.8057 10.3733 40.2217 7.35625 37.6882C-0.421089 31.1573 -2.29857 19.6875 3.00775 11.045C6.36539 5.57632 11.061 1.78133 17.3949 0.541358C25.1438 -0.975639 32.1065 0.855568 37.7334 6.60726C41.1524 10.1021 43.1595 14.3504 43.6706 19.2558C43.6814 19.3595 43.6998 19.4625 43.8516 19.5764C44.0173 18.6645 44.1246 17.7373 44.3579 16.8429C46.2763 9.489 50.6177 4.12378 57.8169 1.54141C66.8941 -1.71461 75.1294 0.207733 81.7458 7.11908C90.5714 16.338 89.1235 29.1353 81.3155 36.8398C78.23 39.8845 75.0579 41.4684 69.8534 42.5075C77.4448 44.003 83.0927 47.9616 86.393 55.1528C87.8812 58.9609 88.4055 62.738 87.6705 66.662C87.5546 67.2809 87.5584 67.9222 87.5068 68.5532C87.3747 68.7475 87.1913 68.9242 87.1179 69.1387C84.4622 76.8913 78.9173 81.457 71.1749 83.5867C68.6153 84.2908 66.0034 84.6123 63.1931 84.456C53.2956 83.352 46.6513 78.4214 43.7236 68.9845C43.3155 70.0048 42.9451 71.1656 42.4036 72.2402C40.8665 75.291 38.6714 77.815 35.9913 79.9218C32.6047 82.5839 28.7266 83.9903 24.4671 84.4165ZM44.012 40.5104C44.0299 40.5884 44.0479 40.6665 44.0464 40.8896C44.1031 41.1878 44.1476 41.4889 44.2183 41.7837C44.9564 44.8603 47.5772 47.0558 50.9669 47.4424C53.8231 47.7682 56.9119 46.0285 58.2321 43.3505C59.5586 40.6599 59.1272 37.2177 57.1922 35.0536C55.0982 32.7116 51.9276 31.8438 49.0631 32.8285C46.13 33.8368 44.1747 36.478 43.9097 39.736C43.8202 39.5654 43.6684 39.4012 43.6502 39.2233C43.2019 34.8306 39.3083 31.865 34.8677 32.5469C30.8185 33.1686 27.9715 37.2986 28.7775 41.3815C29.623 45.6647 33.7401 48.3092 37.962 47.2049C41.1317 46.3758 42.931 44.2194 43.6029 41.0534C43.6565 40.8007 43.881 40.5842 44.0103 40.3735C44.0103 40.3735 44.0316 40.3908 44.012 40.5104ZM53.5769 55.7121C54.038 55.2708 54.538 54.863 54.9528 54.3818C56.0909 53.061 56.9014 51.5753 56.8655 49.775C56.8457 48.782 56.2055 48.1459 55.3691 48.1359C54.5936 48.1267 54.009 48.7458 53.9442 49.7146C53.8293 51.4318 53.0563 52.8215 51.7372 53.8534C47.7504 56.9723 43.3377 57.3352 38.7518 55.5029C35.9674 54.3905 33.8922 52.5374 33.567 49.2541C33.5264 48.8441 32.8512 48.2038 32.4603 48.1965C31.983 48.1877 31.2539 48.6333 31.0714 49.0667C30.8245 49.6528 30.855 50.4478 31.0114 51.0939C31.446 52.8902 32.469 54.3446 33.9099 55.5105C39.503 60.036 47.764 60.1597 53.5769 55.7121Z" fill="url(#paint0_linear_40_298)"/>
<path d="M44.0258 40.3505C43.8807 40.5838 43.6563 40.8002 43.6027 41.0529C42.9307 44.219 41.1314 46.3753 37.9618 47.2044C33.7398 48.3088 29.6228 45.6642 28.7772 41.3811C27.9713 37.2982 30.8183 33.1682 34.8675 32.5465C39.3081 31.8646 43.2017 34.8302 43.65 39.2229C43.6681 39.4007 43.8199 39.565 43.961 39.7646C44.017 39.9793 44.0214 40.1649 44.0258 40.3505ZM32.2901 40.5938C32.3622 40.8883 32.4088 41.1921 32.5106 41.476C33.0933 43.1006 34.5833 44.1501 36.3582 44.203C38.1729 44.2571 39.7995 43.2593 40.4542 41.6904C41.1561 40.0084 40.8261 38.1871 39.5987 36.969C38.3151 35.6952 36.4718 35.3485 34.7926 36.0652C33.1657 36.7597 32.2519 38.3442 32.2901 40.5938Z" fill="#F9FBFB"/>
<path d="M44.0175 40.3622C44.021 40.1653 44.0166 39.9797 44.0107 39.724C44.1741 36.4779 46.1294 33.8367 49.0624 32.8285C51.9269 31.8437 55.0975 32.7115 57.1915 35.0535C59.1265 37.2177 59.558 40.6598 58.2315 43.3504C56.9112 46.0285 53.8224 47.7681 50.9663 47.4424C47.5766 47.0558 44.9557 44.8602 44.2177 41.7836C44.147 41.4888 44.1025 41.1877 44.0877 40.7865C44.0967 40.5859 44.0639 40.4883 44.031 40.3908C44.031 40.3908 44.0096 40.3734 44.0175 40.3622ZM53.2887 36.2956C53.0412 36.1823 52.7999 36.0524 52.5453 35.9582C50.289 35.1235 47.6439 36.4255 46.9789 38.6927C46.259 41.1472 47.7137 43.5802 50.2031 44.0854C52.2713 44.5052 54.1732 43.5984 54.9836 41.8063C55.8982 39.7839 55.3077 37.7532 53.2887 36.2956Z" fill="#F9FBFB"/>
<path d="M53.5273 55.7543C47.7642 60.1601 39.5031 60.0364 33.91 55.5109C32.4691 54.3451 31.4461 52.8906 31.0115 51.0944C30.8552 50.4482 30.8247 49.6532 31.0716 49.0671C31.2541 48.6337 31.9832 48.1882 32.4605 48.197C32.8514 48.2042 33.5265 48.8445 33.5671 49.2545C33.8924 52.5378 35.9676 54.3909 38.7519 55.5034C43.3378 57.3356 47.7506 56.9728 51.7374 53.8539C53.0565 52.8219 53.8295 51.4323 53.9444 49.7151C54.0092 48.7463 54.5937 48.1271 55.3692 48.1363C56.2057 48.1463 56.8458 48.7824 56.8656 49.7755C56.9016 51.5757 56.0911 53.0615 54.9529 54.3822C54.5382 54.8635 54.0382 55.2712 53.5273 55.7543Z" fill="#030303"/>
<path d="M44.0215 40.4506C44.0642 40.4884 44.097 40.586 44.0977 40.714C44.0476 40.6664 44.0296 40.5884 44.0215 40.4506Z" fill="#F9FBFB"/>
<path d="M32.282 40.5129C32.2513 38.3448 33.1651 36.7602 34.7921 36.0658C36.4712 35.3491 38.3146 35.6957 39.5982 36.9696C40.8255 38.1876 41.1555 40.009 40.4536 41.691C39.799 43.2599 38.1724 44.2576 36.3577 44.2036C34.5827 44.1507 33.0927 43.1011 32.5101 41.4766C32.4082 41.1926 32.3617 40.8889 32.282 40.5129Z" fill="#030303"/>
<path d="M53.3455 36.3316C55.3077 37.7529 55.8982 39.7836 54.9837 41.806C54.1732 43.5981 52.2713 44.5049 50.2032 44.0852C47.7137 43.5799 46.2591 41.1469 46.979 38.6924C47.6439 36.4252 50.2891 35.1233 52.5453 35.9579C52.7999 36.0521 53.0413 36.182 53.3455 36.3316Z" fill="#030303"/>
<defs>
<linearGradient id="paint0_linear_40_298" x1="44" y1="0" x2="44" y2="84.4947" gradientUnits="userSpaceOnUse">
<stop offset="0.235577" stop-color="#3C87D5"/>
<stop offset="1" stop-color="#A057E0"/>
</linearGradient>
</defs>
</svg>
