<svg width="88" height="85" viewBox="0 0 88 85" fill="none" xmlns="http://www.w3.org/2000/svg">
<path d="M24.4671 84.4165C20.6585 84.5558 17.0177 83.8346 13.5342 82.295C13.2908 82.1874 13.0255 82.1292 12.6722 81.9999C12.281 81.74 12.0087 81.4887 11.6917 81.323C9.383 80.1158 7.39642 78.493 5.63077 76.5984C4.978 75.898 4.42337 75.1062 3.82398 74.356C1.28777 70.4158 -0.136346 66.1655 0.166256 61.4184C0.528776 55.7314 3.01142 51.1193 7.2422 47.3925C10.2475 44.7453 13.8028 43.2569 17.9563 42.5007C13.8284 41.8057 10.3733 40.2217 7.35625 37.6882C-0.421089 31.1573 -2.29857 19.6875 3.00775 11.045C6.36539 5.57632 11.061 1.78133 17.3949 0.541358C25.1438 -0.975639 32.1065 0.855568 37.7334 6.60726C41.1524 10.1021 43.1595 14.3504 43.6706 19.2558C43.6814 19.3595 43.6998 19.4625 43.8516 19.5764C44.0173 18.6645 44.1246 17.7373 44.3579 16.8429C46.2763 9.489 50.6177 4.12378 57.8169 1.54141C66.8941 -1.71461 75.1294 0.207733 81.7458 7.11908C90.5714 16.338 89.1235 29.1353 81.3155 36.8398C78.23 39.8845 75.0579 41.4684 69.8534 42.5075C77.4448 44.003 83.0927 47.9616 86.393 55.1528C87.8812 58.9609 88.4055 62.738 87.6705 66.662C87.5546 67.2809 87.5584 67.9222 87.5068 68.5532C87.3747 68.7475 87.1913 68.9242 87.1179 69.1387C84.4622 76.8913 78.9173 81.457 71.1749 83.5867C68.6153 84.2908 66.0034 84.6123 63.1931 84.456C53.2956 83.352 46.6513 78.4214 43.7236 68.9845C43.3155 70.0048 42.9451 71.1656 42.4036 72.2402C40.8665 75.291 38.6714 77.815 35.9913 79.9218C32.6047 82.5839 28.7266 83.9903 24.4671 84.4165ZM44.012 40.5104C44.0299 40.5884 44.0479 40.6665 44.0464 40.8896C44.1031 41.1878 44.1476 41.4889 44.2183 41.7837C44.9564 44.8603 47.5772 47.0558 50.9669 47.4424C53.8231 47.7682 56.9119 46.0285 58.2321 43.3505C59.5586 40.6599 59.1272 37.2177 57.1922 35.0536C55.0982 32.7116 51.9276 31.8438 49.0631 32.8285C46.13 33.8368 44.1747 36.478 43.9097 39.736C43.8202 39.5654 43.6684 39.4012 43.6502 39.2233C43.2019 34.8306 39.3083 31.865 34.8677 32.5469C30.8185 33.1686 27.9715 37.2986 28.7775 41.3815C29.623 45.6647 33.7401 48.3092 37.962 47.2049C41.1317 46.3758 42.931 44.2194 43.6029 41.0534C43.6565 40.8007 43.881 40.5842 44.0103 40.3735C44.0103 40.3735 44.0316 40.3908 44.012 40.5104ZM53.5769 55.7121C54.038 55.2708 54.538 54.863 54.9528 54.3818C56.0909 53.061 56.9014 51.5753 56.8655 49.775C56.8457 48.782 56.2055 48.1459 55.3691 48.1359C54.5936 48.1267 54.009 48.7458 53.9442 49.7146C53.8293 51.4318 53.0563 52.8215 51.7372 53.8534C47.7504 56.9723 43.3377 57.3352 38.7518 55.5029C35.9674 54.3905 33.8922 52.5374 33.567 49.2541C33.5264 48.8441 32.8512 48.2038 32.4603 48.1965C31.983 48.1877 31.2539 48.6333 31.0714 49.0667C30.8245 49.6528 30.855 50.4478 31.0114 51.0939C31.446 52.8902 32.469 54.3446 33.9099 55.5105C39.503 60.036 47.764 60.1597 53.5769 55.7121Z" fill="url(#paint0_linear_40_271)"/>
<path d="M44.026 40.3505C43.881 40.5838 43.6565 40.8002 43.6029 41.0529C42.931 44.219 41.1317 46.3753 37.962 47.2044C33.7401 48.3088 29.623 45.6642 28.7775 41.3811C27.9715 37.2982 30.8185 33.1682 34.8677 32.5465C39.3083 31.8646 43.2019 34.8302 43.6502 39.2229C43.6684 39.4007 43.8202 39.565 43.9612 39.7646C44.0172 39.9793 44.0216 40.1649 44.026 40.3505ZM32.2904 40.5938C32.3625 40.8883 32.4091 41.1921 32.5109 41.476C33.0935 43.1006 34.5835 44.1501 36.3585 44.203C38.1732 44.2571 39.7998 43.2593 40.4544 41.6904C41.1563 40.0084 40.8263 38.1871 39.599 36.969C38.3154 35.6952 36.472 35.3485 34.7929 36.0652C33.1659 36.7597 32.2521 38.3442 32.2904 40.5938Z" fill="#F9FBFB"/>
<path d="M44.0175 40.3622C44.021 40.1653 44.0166 39.9797 44.0107 39.724C44.1741 36.4779 46.1294 33.8367 49.0624 32.8285C51.9269 31.8437 55.0975 32.7115 57.1915 35.0535C59.1265 37.2177 59.558 40.6598 58.2315 43.3504C56.9112 46.0285 53.8224 47.7681 50.9663 47.4424C47.5766 47.0558 44.9557 44.8602 44.2177 41.7836C44.147 41.4888 44.1025 41.1877 44.0877 40.7865C44.0967 40.5859 44.0639 40.4883 44.031 40.3908C44.031 40.3908 44.0096 40.3734 44.0175 40.3622ZM53.2887 36.2956C53.0412 36.1823 52.7999 36.0524 52.5453 35.9582C50.289 35.1235 47.6439 36.4255 46.9789 38.6927C46.259 41.1472 47.7137 43.5802 50.2031 44.0854C52.2713 44.5052 54.1732 43.5984 54.9836 41.8063C55.8982 39.7839 55.3077 37.7532 53.2887 36.2956Z" fill="#F9FBFB"/>
<path d="M53.5273 55.7541C47.7642 60.16 39.5031 60.0363 33.91 55.5108C32.4691 54.3449 31.4461 52.8905 31.0115 51.0942C30.8552 50.4481 30.8247 49.6531 31.0716 49.067C31.2541 48.6336 31.9832 48.188 32.4605 48.1968C32.8514 48.2041 33.5265 48.8444 33.5671 49.2544C33.8924 52.5377 35.9676 54.3908 38.7519 55.5032C43.3378 57.3355 47.7506 56.9726 51.7374 53.8537C53.0565 52.8218 53.8295 51.4321 53.9444 49.7149C54.0092 48.7461 54.5937 48.127 55.3692 48.1362C56.2057 48.1462 56.8458 48.7823 56.8656 49.7753C56.9016 51.5756 56.0911 53.0613 54.9529 54.3821C54.5382 54.8633 54.0382 55.2711 53.5273 55.7541Z" fill="#030303"/>
<path d="M44.0215 40.4507C44.0642 40.4885 44.097 40.5861 44.0977 40.7141C44.0476 40.6666 44.0296 40.5885 44.0215 40.4507Z" fill="#F9FBFB"/>
<path d="M32.2818 40.5128C32.2511 38.3446 33.1649 36.7601 34.7918 36.0657C36.471 35.349 38.3143 35.6956 39.5979 36.9695C40.8253 38.1875 41.1553 40.0089 40.4534 41.6909C39.7987 43.2597 38.1721 44.2575 36.3574 44.2034C34.5825 44.1505 33.0925 43.101 32.5098 41.4764C32.408 41.1925 32.3614 40.8888 32.2818 40.5128Z" fill="#030303"/>
<path d="M53.3458 36.3316C55.308 37.7529 55.8984 39.7836 54.9839 41.806C54.1735 43.5981 52.2716 44.5049 50.2034 44.0852C47.714 43.5799 46.2593 41.1469 46.9792 38.6924C47.6442 36.4252 50.2893 35.1233 52.5456 35.9579C52.8001 36.0521 53.0415 36.182 53.3458 36.3316Z" fill="#030303"/>
<defs>
<linearGradient id="paint0_linear_40_271" x1="44" y1="0" x2="44" y2="84.4947" gradientUnits="userSpaceOnUse">
<stop stop-color="#EA60CF"/>
<stop offset="1" stop-color="#F18334"/>
</linearGradient>
</defs>
</svg>
